<svg width="10" height="10" viewBox="0 0 10 10" fill="none" xmlns="http://www.w3.org/2000/svg">
<path d="M5.23776 0.540779L5.99706 2.87766C6.09747 3.18668 6.38544 3.3959 6.71036 3.3959H9.1675C9.40968 3.3959 9.51037 3.7058 9.31444 3.84815L7.32657 5.29242C7.06371 5.48341 6.95371 5.82193 7.05412 6.13095L7.81342 8.46783C7.88826 8.69816 7.62464 8.88969 7.42871 8.74734L5.44084 7.30307C5.17797 7.11208 4.82203 7.11208 4.55916 7.30307L2.57129 8.74734C2.37536 8.88969 2.11174 8.69816 2.18658 8.46783L2.94588 6.13095C3.04629 5.82193 2.93629 5.48341 2.67343 5.29242L0.685557 3.84815C0.489628 3.7058 0.590322 3.3959 0.832503 3.3959H3.28964C3.61456 3.3959 3.90253 3.18668 4.00294 2.87766L4.76224 0.54078C4.83707 0.310452 5.16293 0.310453 5.23776 0.540779Z" stroke="black" stroke-width="0.5"/>
</svg>
